<svg xmlns="http://www.w3.org/2000/svg" version="1.1" xmlns:xlink="http://www.w3.org/1999/xlink" xmlns:svgjs="http://svgjs.dev/svgjs" width="2000" height="419" viewBox="0 0 2000 419"><g transform="matrix(1,0,0,1,-1.2121212121212466,1.1640723572818388)"><svg viewBox="0 0 396 83" data-background-color="#ffffff" preserveAspectRatio="xMidYMid meet" height="419" width="2000" xmlns="http://www.w3.org/2000/svg" xmlns:xlink="http://www.w3.org/1999/xlink"><g id="tight-bounds" transform="matrix(1,0,0,1,0.2400000000000091,-0.23059189893649545)"><svg viewBox="0 0 395.52 83.46118379787296" height="83.46118379787296" width="395.52"><g><svg viewBox="0 0 525.3026176867672 110.84743710623755" height="83.46118379787296" width="395.52"><g transform="matrix(1,0,0,1,0,15.319725388778132)"><svg viewBox="0 0 395.52 80.20798632868129" height="80.20798632868129" width="395.52"><g id="textblocktransform"><svg viewBox="0 0 395.52 80.20798632868129" height="80.20798632868129" width="395.52" id="textblock"><g><svg viewBox="0 0 395.52 80.20798632868129" height="80.20798632868129" width="395.52"><g transform="matrix(1,0,0,1,0,0)"><svg width="395.52" viewBox="0.9 -35.15 175.54 35.6" height="80.20798632868129" data-palette-color="#4a544a"><path d="M23.15-33.7L23.15-30.15 14.05-30.15 14.05 0 10 0 10-30.15 0.9-30.15 0.9-33.7 23.15-33.7ZM43-6.75L43-6.75Q43-3.5 40.72-1.6 38.45 0.3 34.5 0.3L34.5 0.3Q29.9 0.3 27.05-1.25L27.05-1.25 27.05-5.1Q30.4-3.1 34.25-3.1L34.25-3.1Q36.55-3.1 37.75-4 38.95-4.9 38.95-6.45L38.95-6.45Q38.95-8.25 37.62-9.25 36.3-10.25 33.2-11.5L33.2-11.5Q30.35-12.6 28.62-14.25 26.9-15.9 26.9-18.7L26.9-18.7Q26.9-21.85 29.27-23.73 31.65-25.6 35.2-25.6L35.2-25.6Q39.15-25.6 41.55-24.5L41.55-24.5 41.55-20.75Q39.25-22.15 35.25-22.15L35.25-22.15Q33.25-22.15 32.07-21.23 30.9-20.3 30.9-18.85L30.9-18.85Q30.9-17.95 31.25-17.28 31.6-16.6 32.62-15.95 33.65-15.3 34.12-15.08 34.6-14.85 36.2-14.15L36.2-14.15Q39.4-12.85 41.2-11.2 43-9.55 43-6.75ZM52.25-35.15L52.25 0 48.35 0 48.35-35.15 52.25-35.15ZM67.4-25.35L57.4-13.3 67.7 0 62.95 0 52.75-13.3 62.7-25.35 67.4-25.35ZM84.84 0L84.84 0 72.54 0 72.54-33.7 82.69-33.7Q87.89-33.7 91.02-31.3 94.14-28.9 94.14-24.85L94.14-24.85Q94.14-21.95 92.52-19.83 90.89-17.7 88.34-17.15L88.34-17.15Q91.14-16.7 93.12-14.63 95.09-12.55 95.09-9L95.09-9Q95.09-4.95 92.42-2.48 89.74 0 84.84 0ZM82.69-30.25L82.69-30.25 76.59-30.25 76.59-18.75 81.99-18.75Q86.04-18.75 87.99-20.45 89.94-22.15 89.94-24.85L89.94-24.85Q89.94-27.2 88.12-28.73 86.29-30.25 82.69-30.25ZM83.49-15.3L83.49-15.3 76.59-15.3 76.59-3.45 84.24-3.45Q87.44-3.45 89.17-4.93 90.89-6.4 90.89-9.25 90.89-12.1 88.97-13.7 87.04-15.3 83.49-15.3ZM123.19-12.6L123.19-12.6Q123.19-6.95 119.99-3.25 116.79 0.45 111.19 0.45L111.19 0.45Q105.74 0.45 102.57-3.23 99.39-6.9 99.39-12.5L99.39-12.5Q99.39-18.15 102.67-21.93 105.94-25.7 111.19-25.7L111.19-25.7Q116.94-25.7 120.07-22 123.19-18.3 123.19-12.6ZM103.49-12.55L103.49-12.55Q103.49-8.6 105.59-5.83 107.69-3.05 111.19-3.05L111.19-3.05Q114.99-3.05 117.04-5.78 119.09-8.5 119.09-12.55L119.09-12.55Q119.09-16.75 117.14-19.48 115.19-22.2 111.19-22.2L111.19-22.2Q107.59-22.2 105.54-19.4 103.49-16.6 103.49-12.55ZM151.29-12.6L151.29-12.6Q151.29-6.95 148.09-3.25 144.89 0.45 139.29 0.45L139.29 0.45Q133.84 0.45 130.66-3.23 127.49-6.9 127.49-12.5L127.49-12.5Q127.49-18.15 130.76-21.93 134.04-25.7 139.29-25.7L139.29-25.7Q145.04-25.7 148.16-22 151.29-18.3 151.29-12.6ZM131.59-12.55L131.59-12.55Q131.59-8.6 133.69-5.83 135.79-3.05 139.29-3.05L139.29-3.05Q143.09-3.05 145.14-5.78 147.19-8.5 147.19-12.55L147.19-12.55Q147.19-16.75 145.24-19.48 143.29-22.2 139.29-22.2L139.29-22.2Q135.69-22.2 133.64-19.4 131.59-16.6 131.59-12.55ZM160.99-35.15L160.99 0 157.09 0 157.09-35.15 160.99-35.15ZM176.13-25.35L166.13-13.3 176.44 0 171.69 0 161.49-13.3 171.44-25.35 176.13-25.35Z" opacity="1" transform="matrix(1,0,0,1,0,0)" fill="#4a544a" class="wordmark-text-0" data-fill-palette-color="primary" id="text-0"></path></svg></g></svg></g></svg></g></svg></g><g transform="matrix(1,0,0,1,414.45518058052977,0)"><svg viewBox="0 0 110.84743710623755 110.84743710623755" height="110.84743710623755" width="110.84743710623755"><g data-palette-color="#9fecd0"><rect width="30.298299475704926" height="110.84743710623755" fill="#9fecd0" stroke="transparent" data-fill-palette-color="accent" x="0" fill-opacity="1"></rect><rect width="30.298299475704926" height="110.84743710623755" fill="#9fecd0" stroke="transparent" data-fill-palette-color="accent" x="36.94914570207918" fill-opacity="0.75"></rect><rect width="30.298299475704926" height="110.84743710623755" fill="#9fecd0" stroke="transparent" data-fill-palette-color="accent" x="73.89829140415836" fill-opacity="0.5"></rect></g></svg></g></svg></g><defs></defs></svg><rect width="395.52" height="83.46118379787296" fill="none" stroke="none" visibility="hidden"></rect></g></svg></g></svg>